<svg xmlns="http://www.w3.org/2000/svg" viewBox="0 0 232 149"><g fill="none" fill-rule="evenodd"><path fill="#D9F8FF" d="M66.7 76.7s-26 1.6-27 5.8c-1 4.2 23.3 6.3 26.8 7.8 3.4 1.6 3.1 4 .2 5.3-2.9 1.3-64.8 16-66.7 25.2-1.8 9.2 58 10.5 75.4 10.7 17.3.3 30.4 3.1 30 8.7-.4 5.5 32 13.6 71 2.9 39.2-10.8 41.7-20.5 36.8-24.2-6.3-4.7-54.6-12.6-105.8-12.6-45.4 0-28.9-4.7-17-8.3 0 0 23.3-7.1 14.6-10-8.6-2.9-45.9-3.7-44.6-6 1.3-2.4 8.7-2.7 8.7-2.7l-2.4-2.6z"/><path fill="#FFF" d="M123.2 63.4l-54.8 8.7 1.3 7.8 53.3-8.2z"/><path fill="#FFF" stroke="#99B2DD" stroke-width="2" d="M68.4 72l1.3 8 53.3-8.3.2-8.3z"/><path stroke="#FFC2C2" stroke-width=".8" d="M70.8 74.9l50.6-8"/><path stroke="#FFE98D" stroke-width=".8" d="M71 76.7l50-7.7"/><path fill="#FFF" stroke="#99B2DD" stroke-width="2" d="M118.5 57.2l.3-2.9a3.5 3.5 0 0 1 3.7-3.1 3.5 3.5 0 0 1 3.2 3.7l-.3 3a3.5 3.5 0 0 1-3.7 3 3.5 3.5 0 0 1-3.2-3.7zm4-7.9a3.5 3.5 0 0 1-3.2-3.7l.3-3a3.5 3.5 0 0 1 3.7-3 3.5 3.5 0 0 1 3.2 3.7l-.3 2.9a3.5 3.5 0 0 1-3.7 3.1zm18-26.1L136 86.3l89.7.2a2.1 2.1 0 0 0 2-2l3.2-43.4a2.1 2.1 0 0 0-1.7-2.2l-88.6-15.7z"/><path fill="#E9F6FF" d="M137.4 66.5l-1.5 19.8 89.7.2a2.1 2.1 0 0 0 2-2l.6-8"/><path stroke="#99B2DD" stroke-width="2.1" d="M137.4 66.5l-1.5 19.8 89.7.2a2.1 2.1 0 0 0 2-2l.6-8"/><path fill="#FFF" stroke="#99B2DD" stroke-width="2" d="M135.9 88.8l-8.3-3.7 4.5-62 8.7-2.5zm-8.4-7.2l-7.2-1.1 4-54.7h7.2z"/><path fill="#C5F0FF" stroke="#99B2DD" d="M136.5 86s6.9-14.2 32.3-21c25.5-6.8 25.8-27 33.5-30.5l26.2 4.7s-6.6 7.2-26.3 14.2c-19.7 7.1-28.6 21-30.6 32.8l-35.1-.1z"/><path fill="#E9F6FF" d="M155 68.4s-5.3.2-6-6.5l2.6-35.5-9.7-1.8-3.4 45.6 7.6.4 1.2 2.1 7.6-4.3z"/><path fill="#D2F5FF" d="M96.7 137.9a35.8 35.8 0 0 0-19.8 1.4c-.8.3-1.7.8-1.9 1.6-.2 1 .7 1.9 1.6 2.4 5.3 3.1 12 2.7 18.1 2.2 1.8-.2 3.6-.4 5.3-1 1-.5 2-1.3 2-2.4.2-1.2-1-2-2-2.7a19.3 19.3 0 0 0-5.6-2"/><path fill="#FCBEBE" d="M99 35.4a1.8 1.8 0 0 0 1.5 2c.5.2 1 0 1.4-.2a1.8 1.8 0 0 0 .8-1.2 1.8 1.8 0 0 0-.3-1.3 1.8 1.8 0 0 0-1.2-.8 1.8 1.8 0 0 0-1.3.3 1.8 1.8 0 0 0-.8 1.2m4.9.9a3.1 3.1 0 0 1-1.3 2 3.1 3.1 0 0 1-2.4.5c-1.7-.3-2.8-2-2.5-3.7a3.2 3.2 0 0 1 5.7-1.2c.5.7.6 1.5.5 2.4"/><path fill="#FFDD71" d="M134.8 4.3a1 1 0 0 1 .5 1.4l-3 6.5a1 1 0 0 1-1.3.5 1 1 0 0 1-.5-1.3l3-6.5a1 1 0 0 1 1.3-.6"/><path fill="#FFDD71" d="M130.1 6.2l6.4 2.8c.5.3.7.8.4 1.4a1 1 0 0 1-1.3.5L129.3 8a1 1 0 0 1-.5-1.3 1 1 0 0 1 1.3-.5"/><path fill="#5FC3F8" d="M119.6 2.6a2.1 2.1 0 0 1 4.2.8 2.1 2.1 0 0 1-4.2-.8"/><path fill="#A0E8F9" d="M158.7 85.1s7.3-12.7 34.6-29.8A176 176 0 0 0 217 38l9.2 1.7s-5.4 5.7-24.4 12.7c-19.6 7.2-29 21.4-31 32.6h-12z"/></g></svg>