<svg xmlns="http://www.w3.org/2000/svg" viewBox="0 0 269 158"><g fill="none" fill-rule="evenodd"><path fill="#E1FBFF" d="M108.8 21C84 43.1 61.5 29.5 38.3 64.4c-23.2 34.8-.8 82 37.1 91 38 8.9 58-15.5 58-15.5s11.2-16.1 34.4-23.7c23.3-7.5 48.3-28 44-60.9C207.6 22.4 173.7 1 158.2 1c-1.1.1-24.6-2-49.4 20z"/><path fill="#E1FBFF" d="M78.7 6.3c-5.4 9.1.2 16.2 4.6 16.6 4.5.5 17 .7 17.4-4.9.4-5.6-1.7-13.6-8-17.3 0 0-8.7-3.6-14 5.6z"/><path fill="#FFF" stroke="#99B2DD" stroke-width="2" d="M74.8 101.5v3a23.6 23.6 0 0 1-23.4 23.6c-15.9.2-32 0-32 0v8s16.4-.6 32.3-.7c17.1 0 30.7-14 30.7-31V76c0-19.6 16-35.6 35.6-35.6v-8.6a43.4 43.4 0 0 0-43.2 43.3v26.3zm85.6-29.3a43 43 0 0 1 1.4 11.1v29.4a23.6 23.6 0 0 0 23.4 23.5c15.9.2 63.4 0 63.4 0v8l-63.7-.7c-17 0-30.7-13.9-30.7-31V84.3a34 34 0 0 0-1.3-9.7l7.5-2.4z"/><path fill="#FFEFAB" stroke="#99B2DD" d="M128.4 34.6H124a2 2 0 0 1-2-2 2 2 0 0 1 2-2.1h4.4c1.1 0 2 1 2 2a2 2 0 0 1-2 2"/><path fill="#FFE1E1" stroke="#99B2DD" d="M147 57.7l.9 4s.5 1.2 2.3.9c1.8-.4 8-1.8 9.8 6.7l-3.2.6s-.7-5.4-6.3-4.2c-5.5 1-6-3.6-6-3.6l-.7-3.4s-.2-1.9 1.3-2.2c1.4-.3 2 1.2 2 1.2"/><path fill="#BBEDFF" stroke="#99B2DD" d="M122.2 35.5l.2 3.7s3.9-.3 4.1 4l.3 6.3s.9 3.1 3.4 3l4.6-.3s1.7 0 1.6-2c0-2-1.8-1.6-1.8-1.6l-3.2.1s-1.3.3-1.4-1.2l-.3-5.7s-.8-6.6-7.5-6.3"/><path fill="#FFF" stroke="#99B2DD" stroke-width="2" d="M161.6 75.4l-8 1.8a3.4 3.4 0 0 1-4-2.5 3.4 3.4 0 0 1 2.5-4l8-1.8a3.4 3.4 0 0 1 4 2.5 3.4 3.4 0 0 1-2.5 4m-39.1-35.2a3.4 3.4 0 0 1-3.4 3.4 3.4 3.4 0 0 1-3.4-3.4V32a3.4 3.4 0 0 1 3.4-3.3 3.4 3.4 0 0 1 3.4 3.3v8.3z"/><path fill="#D2E9FF" d="M134.8 21a1.7 1.7 0 0 0-2 1 1.7 1.7 0 0 0 2.3 2.1c.4-.2.7-.5.9-1a1.6 1.6 0 0 0 0-1.2 1.6 1.6 0 0 0-1.2-1m-1 4.5a2.9 2.9 0 0 1-2-3.8 2.9 2.9 0 0 1 3.6-1.7 2.9 2.9 0 0 1 1.7 3.7 2.8 2.8 0 0 1-1.5 1.6 2.9 2.9 0 0 1-1.9.2m37.5 31a.7.7 0 0 1-1 .4l-4.8-1.8a.7.7 0 0 1-.4-1 .7.7 0 0 1 1-.3l4.8 1.8c.4.1.5.5.4 1"/><path fill="#D2E9FF" d="M169.7 53.1l-1.8 4.8a.7.7 0 0 1-1 .4.7.7 0 0 1-.4-1l1.8-4.7a.7.7 0 0 1 1-.4c.3.1.5.6.4 1m10.3.5a2 2 0 0 1-1.4 3.7 2 2 0 0 1 1.4-3.7"/><path fill="#FFB3B3" d="M163.6 42.2a.7.7 0 0 1 1 0l1.8 3a.7.7 0 0 0 1 0l6.8-10.4c.4-.6-.4-1.3-1-.8l-6.3 6a.7.7 0 0 1-1-.2L165 38a.7.7 0 0 0-1 0l-9.5 10.3s-.2 1.1.8.6c1-.4 8.3-6.8 8.3-6.8m-11.8-.5c0-.3.4-.5.7-.4l2 .6c.3.1.6-.1.6-.4l.1-8c0-.5-.7-.4-.8 0l-1.5 5.7c0 .3-.4.5-.6.4l-1-.5c-.4 0-.7.2-.7.5l-1.7 9s.3.7.7 0c.4-.6 2.2-6.9 2.2-6.9"/><path fill="#FFF" stroke="#99B2DD" stroke-width="2" d="M1 126.6v11.1h16.5v-11zm16.7-2v15h5v-15z"/><path fill="#BDD3F4" d="M3.6 131.5h7.7a1 1 0 0 0 1-1 1 1 0 0 0-1-1H3.6a1 1 0 0 0-1 1c0 .6.5 1 1 1m0 3.1h7.6a1 1 0 0 0 1-1 1 1 0 0 0-1-.9H3.5a1 1 0 0 0-1 1c0 .5.5 1 1 1"/><path fill="#FFF" stroke="#99B2DD" stroke-width="2" d="M267.3 134.8v11h-16.5v-11zm-16.8-2v15h-5v-15z"/><path fill="#BDD3F4" d="M264.7 139.6H257a1 1 0 0 1-1-1c0-.5.5-1 1-1h7.7c.5 0 1 .5 1 1 0 .6-.5 1-1 1m0 3.2h-7.6a1 1 0 0 1-1-1c0-.5.5-1 1-1h7.7c.5 0 .9.5.9 1s-.4 1-1 1"/></g></svg>