<svg xmlns="http://www.w3.org/2000/svg" xmlns:xlink="http://www.w3.org/1999/xlink" viewBox="0 0 16 14"><defs><path id="a" d="M1 0l1 1v2L1 4 0 3V1z"/><path id="c" d="M1 0l1 1v2L1 4 0 3V1z"/></defs><g fill="none" fill-rule="evenodd"><path fill="#999" fill-rule="nonzero" d="M2 2h12l2 2v8l-2 2H2l-2-2V4l2-2zM1 12l1 1h12l1-1V4l-1-1H2L1 4v8z"/><path fill="#999" fill-rule="nonzero" d="M0 5h16v1H0z"/><rect width="3" height="1" x="4" y="8" fill="#999" fill-rule="nonzero" rx=".5"/><rect width="3" height="1" x="10" y="8" fill="#999" fill-rule="nonzero" rx=".5"/><rect width="3" height="1" x="4" y="11" fill="#999" fill-rule="nonzero" rx=".5"/><rect width="3" height="1" x="10" y="11" fill="#999" fill-rule="nonzero" rx=".5"/><path fill="#999" fill-rule="nonzero" d="M12 0l1 1v2l-1 1-1-1V1z"/><g transform="translate(11)"><mask id="b" fill="#fff"><use xlink:href="#a"/></mask><path fill="#FFF" fill-rule="nonzero" d="M1 3V1v2z" mask="url(#b)"/></g><path fill="#999" fill-rule="nonzero" d="M4 0l1 1v2L4 4 3 3V1z"/><g transform="translate(3)"><mask id="d" fill="#fff"><use xlink:href="#c"/></mask><path fill="#FFF" fill-rule="nonzero" d="M1 3V1v2z" mask="url(#d)"/></g></g></svg>