<svg xmlns="http://www.w3.org/2000/svg" viewBox="0 0 168 166"><g fill="none" fill-rule="evenodd"><path fill="#F4FFC5" fill-rule="nonzero" d="M2 89c-2 8 2 17 8 23s14 10 23 11l13 4c6 3 9 10 13 16 5 9 13 17 23 20 10 4 22 3 31-4 6-5 9-12 14-19 7-9 17-16 25-25 7-9 13-22 9-33-3-9-12-15-15-24l-1-14c-1-9-4-19-9-27-6-9-14-16-24-17-8 0-16 4-22 10L76 31c-4 7-9 14-16 18-8 5-18 7-27 7l-10 2c-4 1-7 3-9 6C5 72 0 84 1 95"/><path fill="#F4FFC5" fill-rule="nonzero" d="M33 26c-7-2-16 3-19 12l-1 6c0 4 2 7 5 8h8a18 18 0 0 0 14-19l-1-3-2-2-5-2"/><path fill="#D2EFFF" fill-rule="nonzero" stroke="#99B2DD" stroke-linecap="round" stroke-linejoin="round" stroke-width="2" d="M43 132L56 32l76 10-14 100z"/><path fill="#E9F6FF" fill-rule="nonzero" stroke="#99B2DD" stroke-linecap="round" stroke-linejoin="round" stroke-width="2" d="M135 130l-73 15-20-99 73-15z"/><path fill="#FFF" fill-rule="nonzero" stroke="#99B2DD" stroke-linecap="round" stroke-linejoin="round" stroke-width="2" d="M125 137H50V37h57l18 20z"/><path stroke="#99B2DD" stroke-linecap="round" stroke-linejoin="round" stroke-width="2" d="M106 56l18 1-17-20z"/><path fill="#ABFBFF" fill-rule="nonzero" d="M125 25a2.5 2.5 0 1 0 3 4 2.5 2.5 0 0 0-3-4"/><path fill="#FFED85" fill-rule="nonzero" d="M158 44v1l-7 4h-1v-1l7-4h1"/><path fill="#FFED85" fill-rule="nonzero" d="M152 42l4 6v2h-1l-4-7v-1h1"/><path fill="#FCBEBE" fill-rule="nonzero" d="M162 31a3 3 0 1 1 4.2 4.3A3 3 0 0 1 162 31"/><path fill="#99B2DD" fill-rule="nonzero" d="M75 63a2.5 2.5 0 1 1 0-5 2.5 2.5 0 0 1 0 5zm23-2a2.5 2.5 0 1 1-5 0 2.5 2.5 0 0 1 5 0z"/><path stroke="#99B2DD" stroke-width="2" d="M79 76a8 8 0 1 1 15 0"/></g></svg>