<svg xmlns="http://www.w3.org/2000/svg" viewBox="0 0 42 42">
  <g fill="none" fill-rule="evenodd">
    <path fill="#D5E7FE" d="M41.188 20.72c0 11.34-9.179 20.534-20.5 20.534-11.322 0-20.5-9.193-20.5-20.533C.188 9.38 9.366.188 20.688.188c11.321 0 20.5 9.193 20.5 20.533z"/>
    <path fill="#FFF" stroke="#99B2DD" d="M36.375 20.72c0 8.679-7.023 15.713-15.687 15.713S5 29.4 5 20.721 12.024 5.008 20.688 5.008c8.664 0 15.687 7.035 15.687 15.713z"/>
    <path fill="#4FC3F7" d="M26.329 14.146l-8.887 10.328a.182.182 0 0 1-.267.01l-3.037-3.036c-.618-.618-1.601-.774-2.328-.288-.976.652-1.07 2-.283 2.787l4.58 4.58a1.8 1.8 0 0 0 1.443.512l.081-.008c.054-.007.107-.015.16-.027.385-.075.75-.266 1.024-.585l10.25-11.912a1.813 1.813 0 0 0-.19-2.546 1.808 1.808 0 0 0-2.546.185z"/>
  </g>
</svg>
