<svg xmlns="http://www.w3.org/2000/svg" viewBox="0 0 47 47"><g fill="none" fill-rule="evenodd"><path fill="#D2F4E9" fill-rule="nonzero" d="M46 23.2a23 23 0 1 1-45.8 0 23 23 0 0 1 45.9 0z"/><path fill="#FFF" fill-rule="nonzero" stroke="#1DB686" d="M40.7 23.2a17.6 17.6 0 1 1-35.1 0 17.6 17.6 0 0 1 35.1 0z"/><path stroke="#28B587" stroke-linecap="round" stroke-linejoin="round" stroke-width="2" d="M30.1 18.1l1.2-1.1a1.6 1.6 0 0 0-2.3-2.3l-1.2 1.1"/><path fill="#45DAA9" fill-rule="nonzero" d="M13.8 24.3a28 28 0 0 0 8 7.9l3.2 2.3c0-2.7.9-5.2 2.8-7l2.6-2.7a5.6 5.6 0 0 0 1.3-5.9 7.8 7.8 0 0 0-4.6-4.5 5.8 5.8 0 0 0-6 1.1l-2.6 2.6c-1.9 2-4.2 3-7 3l2.3 3.2z"/><path fill="#FFF" fill-rule="nonzero" d="M21.7 17.8a.4.4 0 0 1 0-.5 3.9 3.9 0 0 1 4.2-.8c1.7.6 3 2 3.7 3.6a.4.4 0 1 1-.8.3 5.4 5.4 0 0 0-3.1-3.2c-.8-.2-2.3-.4-3.4.6a.4.4 0 0 1-.6 0z"/><path fill="#28B587" fill-rule="nonzero" d="M15.2 26c-.6 1.4-.3 3 .8 4 1 1.2 2.6 1.4 4 .9a25 25 0 0 1-4.8-4.8z"/><path fill="#96F3D5" fill-rule="nonzero" d="M13.3 17.6a.4.4 0 0 1 0-.3 4.7 4.7 0 0 1 1.3-3.4c.9-.9 2.1-1.4 3.4-1.4a.4.4 0 1 1 0 .9 3.9 3.9 0 0 0-2.8 1.1 4 4 0 0 0-1.2 2.8.4.4 0 0 1-.7.3z"/><path fill="#96F3D5" fill-rule="nonzero" d="M15.2 18.1a.4.4 0 0 1-.1-.3 3.5 3.5 0 0 1 3.5-3.5.4.4 0 1 1 0 .9 2.7 2.7 0 0 0-2.7 2.6.4.4 0 0 1-.7.3zm13.2 14.5a.4.4 0 0 1 .3-.7 4 4 0 0 0 2.7-1.1 4 4 0 0 0 1.2-2.8.4.4 0 1 1 .8 0 4.7 4.7 0 0 1-1.4 3.3 4.7 4.7 0 0 1-3.3 1.4.4.4 0 0 1-.3 0z"/><path fill="#96F3D5" fill-rule="nonzero" d="M27.8 30.7a.4.4 0 0 1 .3-.7 2.7 2.7 0 0 0 2.7-2.7.4.4 0 1 1 .8 0 3.5 3.5 0 0 1-3.5 3.5.4.4 0 0 1-.3 0z"/></g></svg>