<svg xmlns="http://www.w3.org/2000/svg" viewBox="0 0 42 42">
  <g fill="none" fill-rule="evenodd">
    <path fill="#EC9696" d="M41.188 20.72c0 11.34-9.179 20.534-20.5 20.534-11.322 0-20.5-9.193-20.5-20.533C.188 9.38 9.366.188 20.688.188c11.321 0 20.5 9.193 20.5 20.533z"/>
    <path fill="#FFF" stroke="#BC4C3E" d="M36.375 20.72c0 8.679-7.023 15.713-15.687 15.713S5 29.4 5 20.721 12.024 5.008 20.688 5.008c8.664 0 15.687 7.035 15.687 15.713z"/>
    <path stroke="#F66" stroke-linecap="round" stroke-width="3" d="M15 15L21 21 27 27M15 27L21 21 27 15"/>
  </g>
</svg>
