<svg xmlns="http://www.w3.org/2000/svg" viewBox="0 0 16 19">
  <g fill="none" fill-rule="evenodd">
    <path stroke="#666" stroke-linecap="round" d="M2.154.08v14.71M8.944.08v14.71M15.212.08v14.71" transform="matrix(0 1 1 0 .5 .5)"/>
    <path fill="#666" d="M.064 4.809a2.62 2.62 0 0 1 2.612-2.627A2.62 2.62 0 0 1 5.287 4.81a2.62 2.62 0 0 1-2.611 2.626A2.62 2.62 0 0 1 .064 4.81z" transform="matrix(0 1 1 0 .5 .5)"/>
    <path fill="#FFF" d="M4.243 4.809c0-.87-.702-1.576-1.567-1.576-.866 0-1.567.705-1.567 1.576 0 .87.701 1.576 1.567 1.576.865 0 1.567-.706 1.567-1.576z" transform="matrix(0 1 1 0 .5 .5)"/>
    <path fill="#666" d="M6.332 11.113a2.62 2.62 0 0 1 2.612-2.627 2.62 2.62 0 0 1 2.611 2.627 2.62 2.62 0 0 1-2.611 2.626 2.62 2.62 0 0 1-2.612-2.626z" transform="matrix(0 1 1 0 .5 .5)"/>
    <path fill="#FFF" d="M10.51 11.113c0-.87-.7-1.576-1.566-1.576-.866 0-1.567.705-1.567 1.576 0 .87.701 1.576 1.567 1.576.865 0 1.567-.706 1.567-1.576z" transform="matrix(0 1 1 0 .5 .5)"/>
    <path fill="#666" d="M12.6 4.809a2.62 2.62 0 0 1 2.612-2.627 2.62 2.62 0 0 1 2.611 2.627 2.62 2.62 0 0 1-2.611 2.626A2.62 2.62 0 0 1 12.6 4.81z" transform="matrix(0 1 1 0 .5 .5)"/>
    <path fill="#FFF" d="M16.779 4.809c0-.87-.702-1.576-1.567-1.576-.866 0-1.567.705-1.567 1.576 0 .87.701 1.576 1.567 1.576.865 0 1.567-.706 1.567-1.576z" transform="matrix(0 1 1 0 .5 .5)"/>
  </g>
</svg>
