<svg xmlns="http://www.w3.org/2000/svg" viewBox="0 0 19 19"><g fill="none" fill-rule="evenodd"><path stroke="#666" stroke-linecap="round" d="M.5 3h15"/><path fill="#666" d="M4.5.5a2.5 2.5 0 1 1 0 5 2.5 2.5 0 0 1 0-5z"/><path fill="#FFF" d="M4.5 4.5a1.5 1.5 0 1 0 0-3 1.5 1.5 0 0 0 0 3z"/><path fill="#E82E47" d="M13 3a3 3 0 1 1 6 0 3 3 0 0 1-6 0z"/><path stroke="#666" stroke-linecap="round" d="M.5 9.5h15"/><path fill="#666" d="M11.5 7a2.5 2.5 0 1 1 0 5 2.5 2.5 0 0 1 0-5z"/><path fill="#FFF" d="M11.5 11a1.5 1.5 0 1 0 0-3 1.5 1.5 0 0 0 0 3z"/><path stroke="#666" stroke-linecap="round" d="M.5 16h15"/><path fill="#666" d="M4.5 13.5a2.5 2.5 0 1 1 0 5 2.5 2.5 0 0 1 0-5z"/><path fill="#FFF" d="M4.5 17.5a1.5 1.5 0 1 0 0-3 1.5 1.5 0 0 0 0 3z"/></g></svg>