<svg xmlns="http://www.w3.org/2000/svg" viewBox="0 0 21 21">
  <g fill="none" fill-rule="evenodd" stroke="#999">
    <path d="M2.364 5.603L.598 4.965a.654.654 0 0 1-.431-.79l.508-1.91c.139-.522.512-.952 1.01-1.164L3.929.147h4.438l2.362.993c.451.19.803.558.97 1.016l.72 1.967a.655.655 0 0 1-.426.851l-1.843.629" transform="translate(.917 8.583)"/>
    <path d="M8.146.48c0 1.273-.684 1.916-1.917 1.916S4.312 1.72 4.312.295M10.063 3.354v6.709c0 .745-.479 1.437-1.438 1.437H3.833c-.663 0-1.36-.741-1.437-1.438V3.354" transform="translate(.917 8.583)"/>
    <g>
      <path d="M2.364 5.603L.598 4.965a.654.654 0 0 1-.431-.79l.508-1.91c.139-.522.512-.952 1.01-1.164L3.929.147h4.438l2.362.993c.451.19.803.558.97 1.016l.72 1.967a.655.655 0 0 1-.426.851l-1.843.629" transform="translate(7.625 .917)"/>
      <path d="M8.146.48c0 1.273-.684 1.916-1.917 1.916S4.312 1.72 4.312.295M10.063 3.354v6.709c0 .745-.479 1.437-1.438 1.437m-6.23-5.858V3.354" transform="translate(7.625 .917)"/>
    </g>
  </g>
</svg>
