<svg xmlns="http://www.w3.org/2000/svg" viewBox="0 0 20 20">
  <path fill-rule="evenodd" d="M6 14.125h11.107c1.725 0 2.893-1.292 2.893-3.04V6h.006C21.106 6 22 6.905 22 8.019v12.16c0 1.114-.462 1.246-1.031.291l-1.99-3.333H7.999C6.893 17.137 6 16.234 6 15.12v-.995zM3.916 2h13.191C18.277 2 19 2.846 19 4.024v7.06c0 1.177-.71 2.029-1.893 2.029H4.85l-1.765 3.306c-.6 1.017-1.085.896-1.085-.285V4.024C2 2.85 2.747 2 3.916 2zM7 9.038c.552 0 1-.453 1-1.013 0-.559-.448-1.012-1-1.012s-1 .453-1 1.012c0 .56.448 1.013 1 1.013zm4 0c.552 0 1-.453 1-1.013 0-.559-.448-1.012-1-1.012s-1 .453-1 1.012c0 .56.448 1.013 1 1.013zm4 0c.552 0 1-.453 1-1.013 0-.559-.448-1.012-1-1.012s-1 .453-1 1.012c0 .56.448 1.013 1 1.013z" transform="translate(-2 -2)"/>
</svg>
