<svg xmlns="http://www.w3.org/2000/svg" viewBox="0 0 22 21">
  <g fill="none" fill-rule="evenodd">
    <path fill="#999" fill-rule="nonzero" d="M17.969 4.204a1.893 1.893 0 0 0-1.063-.515l-2.846-.411-2.168-1.555a1.744 1.744 0 0 0-.885-.332 1.96 1.96 0 0 0-.965.159c-.097.038-.227.11-.358.196L7.56 3.408l-2.815.52a1.898 1.898 0 0 0-1.184.737c-.201.258-.325.553-.37.884L2.87 8.184l-1.634 2.368a1.78 1.78 0 0 0-.353 1.114c.008.41.14.781.396 1.118l1.643 2.098.507 2.815c.073.408.258.754.558 1.04.299.284.649.455 1.05.514l2.727.394 2.28 1.567c.269.188.571.297.917.327.321.036.637-.014.962-.152.099-.037.226-.11.356-.206l2.093-1.648 2.842-.521c.134-.02.274-.065.434-.139a1.75 1.75 0 0 0 .737-.573c.202-.277.327-.576.377-.9l.384-2.721 1.562-2.275a1.9 1.9 0 0 0 .342-1.13 1.891 1.891 0 0 0-.382-1.114l-1.72-2.297-.432-2.619a1.788 1.788 0 0 0-.547-1.04z" transform="translate(0 -1)"/>
    <path fill="#FFF" fill-rule="nonzero" d="M18.053 8.127l.022.119.02.106.064.086.072.097 1.634 2.182c.13.176.193.36.197.575a.968.968 0 0 1-.178.587l-1.54 2.233-.07.1-.061.089-.015.107-.017.12-.38 2.698a1.09 1.09 0 0 1-.203.479.839.839 0 0 1-.362.275.773.773 0 0 1-.215.074l-2.717.498-.12.022-.108.02-.087.066-.098.074-2.17 1.645a.746.746 0 0 1-.146.088.988.988 0 0 1-.523.089.923.923 0 0 1-.476-.165L8.33 18.842l-.1-.068-.088-.061-.106-.016-.12-.017-2.707-.392a.954.954 0 0 1-.543-.267.916.916 0 0 1-.283-.528l-.48-2.676-.023-.12-.019-.109-.066-.087-.074-.098-1.645-2.182a.93.93 0 0 1-.206-.572.862.862 0 0 1 .178-.557L3.612 8.83l.069-.1.062-.09.015-.107.017-.12.38-2.697a.884.884 0 0 1 .185-.445.972.972 0 0 1 .602-.385l2.688-.497.12-.022.106-.02.087-.065.097-.073 2.182-1.645c.058-.037.137-.08.178-.097.186-.08.35-.107.525-.09a.826.826 0 0 1 .43.163l2.258 1.559.1.068.088.061.107.016.119.017 2.708.392a.964.964 0 0 1 .553.267.857.857 0 0 1 .269.512l.496 2.696z" transform="translate(0 -1)"/>
    <path stroke="#999" stroke-linecap="round" stroke-width=".917" d="M13.779 7.687l-5.55 8.326" transform="translate(0 -1)"/>
    <path fill="#999" fill-rule="nonzero" d="M9.24 10.18a1.85 1.85 0 1 0 0-3.7 1.85 1.85 0 0 0 0 3.7z" transform="translate(0 -1)"/>
    <path fill="#FFF" fill-rule="nonzero" d="M9.24 9.255a.925.925 0 1 1 0-1.85.925.925 0 0 1 0 1.85z" transform="translate(0 -1)"/>
    <path fill="#999" fill-rule="nonzero" d="M13.146 17.065a1.85 1.85 0 1 0 0-3.7 1.85 1.85 0 0 0 0 3.7z" transform="translate(0 -1)"/>
    <path fill="#FFF" fill-rule="nonzero" d="M13.146 16.14a.925.925 0 1 1 0-1.85.925.925 0 0 1 0 1.85z" transform="translate(0 -1)"/>
  </g>
</svg>
