<svg xmlns="http://www.w3.org/2000/svg" viewBox="0 0 38 44"><g fill="none" fill-rule="evenodd"><path d="M-6-2h48v48H-6z"/><path stroke="#3F474E" stroke-width=".7" d="M19 42.9c10 0 18-2 18-4s-8-4-18-4-18 2-18 4 8 4 18 4z"/><path fill="#3F474E" d="M19.4 37.9a107.3 107.3 0 0 0 2-2.5 111 111 0 0 0 4.2-6 73 73 0 0 0 3-4.8c2.2-3.8 3.4-7 3.4-9.6C32 6.1 26.6.2 19 .2S6 6.2 6 15c0 2.5 1.2 5.8 3.4 9.9a80.2 80.2 0 0 0 2.6 4.4 119.6 119.6 0 0 0 4 6 115.6 115.6 0 0 0 1.8 2.5l.8 1 .8-1z"/><path fill="#FFF" d="M17.6 34.2a117.6 117.6 0 0 1-4-6 78.2 78.2 0 0 1-2.4-4.2A22 22 0 0 1 8 15C8 7.2 12.5 2.2 19 2.2s11 5 11 12.8c0 2-1.1 5-3.1 8.7a71 71 0 0 1-3 4.6 109.1 109.1 0 0 1-4.1 5.9l-1.2 1.4-1-1.4z"/><path fill="#3F474E" d="M19 19a6 6 0 1 0 0-12 6 6 0 0 0 0 12z"/></g></svg>