<svg xmlns="http://www.w3.org/2000/svg" viewBox="0 0 22 22"><g fill="none" fill-rule="evenodd" transform="translate(0 -1)"><path fill="#999" fill-rule="nonzero" d="M21 4c.5 0 1 .4.9 1l-2 14c0 .6-.5 1-1 1h-5.3L11.5 5c-.1-.6.3-1 .8-1H21z"/><path fill="#FFF" fill-rule="nonzero" d="M12.5 5l2.1 15-1-.9H19l1.9-14z"/><path stroke="#999" stroke-linecap="round" d="M17.4 4.3l1.1-2.8"/><path fill="#999" fill-rule="nonzero" d="M1 18h16v2.5c0 1.4-1.1 2.5-2.5 2.5h-11A2.5 2.5 0 0 1 1 20.5V18z"/><path fill="#FFF" fill-rule="nonzero" d="M1.4 18.6L2 18v2.5c0 .8.7 1.5 1.5 1.5h11c.8 0 1.5-.7 1.5-1.5V18l.7.5-15.3.1zM9 9c-4 0-7 3.8-7 6h14c0-2-2.4-6-7-6z"/><path fill="#999" fill-rule="nonzero" d="M0 17c0-1.1.9-2 2-2h14a2 2 0 1 1 0 4H2a2 2 0 0 1-2-2z"/><path fill="#FFF" fill-rule="nonzero" d="M1 17c0 .6.4 1 1 1h14c.6 0 1-.4 1-1s-.4-1-1-1H2a1 1 0 0 0-1 1z"/><path fill="#999" fill-rule="nonzero" d="M1.1 15c.7-4 4-7 7.9-7 4 0 7.2 3 7.9 7H1z"/><path fill="#FFF" fill-rule="nonzero" d="M2.1 15c.7-3.4 3.5-6 6.9-6 3.4 0 6.2 2.6 6.9 6H2z"/><circle cx="7.5" cy="11.5" r="1" fill="#999" fill-rule="nonzero"/><path fill="#999" fill-rule="nonzero" d="M9.5 13a.5.5 0 1 0 0-1 .5.5 0 0 0 0 1zm2-1a.5.5 0 1 0 0-1 .5.5 0 0 0 0 1z"/></g></svg>