<svg xmlns="http://www.w3.org/2000/svg" xmlns:xlink="http://www.w3.org/1999/xlink" viewBox="0 0 16 16">
  <defs>
    <path id="time-a" d="M16 8A8 8 0 1 0 0 8a8 8 0 0 0 16 0z"/>
  </defs>
  <g fill="none" fill-rule="evenodd">
    <path fill="#999" fill-rule="nonzero" d="M16 8A8 8 0 1 0 0 8a8 8 0 0 0 16 0z"/>
    <mask id="time-b" fill="#fff">
      <use xlink:href="#time-a"/>
    </mask>
    <path fill="#FFF" fill-rule="nonzero" d="M1 8a7 7 0 1 1 14 0A7 7 0 0 1 1 8z" mask="url(#time-b)"/>
    <g fill="#999" fill-rule="nonzero">
      <path d="M4.014 3.745L7.262.497a.453.453 0 1 1 .641.641L4.656 4.387a.453.453 0 0 1-.641-.641z" transform="rotate(45 -.354 9.39)"/>
      <path d="M1.186.497l3.248 3.248a.453.453 0 1 1-.641.641L.544 1.14a.453.453 0 0 1 .641-.641z" transform="rotate(45 -.354 9.39)"/>
    </g>
  </g>
</svg>
