<svg xmlns="http://www.w3.org/2000/svg" viewBox="0 0 16 16">
  <g fill="none">
    <path fill="#FFF" d="M0 0H15.4931641V15.4931641H0z"/>
    <path fill="#666" d="M7.747 8.145c1.826 0 2.546-2.111 2.546-3.79 0-1.678-1.171-2.552-2.546-2.552-1.375 0-2.547.874-2.547 2.552 0 1.679.72 3.79 2.547 3.79z"/>
    <path fill="#666" d="M6.427 7.653c-.009.244-.068.465-.22.597-.498.433-.904.487-1.76.725-.855.239-1.865 1.374-1.865 3.097 1.214 1.208 3.017 1.473 5.27 1.473 1.86 0 3.663-.265 4.877-1.473 0-1.723-1.01-2.858-1.865-3.097-.856-.238-1.261-.292-1.76-.725-.138-.12-.2-.315-.216-.534"/>
  </g>
</svg>
