<svg xmlns="http://www.w3.org/2000/svg" viewBox="0 0 28 23"><g fill="none" fill-rule="evenodd" stroke="#999"><g transform="translate(18 1)"><circle cx="4.8" cy="4.7" r="4.2" fill="#FFF" fill-rule="nonzero"/><path stroke-width=".8" d="M4 3v2h1a1 1 0 0 0 0-2H4z"/><path stroke-linecap="round" stroke-linejoin="round" d="M4 3v3.5"/></g><path fill="#FFF" fill-rule="nonzero" d="M22.8 20h.8c2.1 0 3.4-2.5 1.1-4a4 4 0 0 0-2.7-1.9c-1.5-.2-2.4-.1-3.5-.1L16 11a2.6 2.6 0 0 0-2-1H5.2c-.5 0-1 .3-1.2.8l-1 2c-.3.4-.5 1-.5 1.4v.1C.7 16 1.1 19.8 4.8 20"/><path stroke-width=".8" d="M10 20h8"/><path stroke-linecap="round" d="M3 14h16"/><path d="M11 10v3m-4-3l-1.8 4"/><path fill="#FFF" fill-rule="nonzero" d="M10 19.5a2.5 2.5 0 1 1-5 0 2.5 2.5 0 0 1 5 0zm13 0a2.5 2.5 0 1 1-5 0 2.5 2.5 0 0 1 5 0z"/></g></svg>